<?xml version="1.0" encoding="UTF-8" standalone="no"?>
<svg id="svg7822" xmlns:rdf="http://www.w3.org/1999/02/22-rdf-syntax-ns#" xmlns="http://www.w3.org/2000/svg" xml:space="preserve" height="40" width="40" version="1.1" y="0px" x="0px" xmlns:cc="http://creativecommons.org/ns#" xmlns:dc="http://purl.org/dc/elements/1.1/" viewBox="0 0 40 40"><style id="style7824" type="text/css">
	.st0{stroke:#070606;stroke-width:0.7679;stroke-miterlimit:10;}
	.st1{display:none;}
	.st2{display:inline;}
	.st3{fill:none;stroke:#070606;stroke-width:0.192;stroke-miterlimit:10;}
	.st4{fill:none;stroke:#070606;stroke-width:0.192;stroke-miterlimit:10;stroke-dasharray:0.3823,0.3823;}
	.st5{fill:none;stroke:#070606;stroke-width:0.192;stroke-miterlimit:10;stroke-dasharray:0.3712,0.3712;}
	.st6{display:inline;clip-path:url(#SVGID_2_);}
	.st7{fill:none;stroke:#070606;stroke-width:0.384;stroke-miterlimit:10;}
	.st8{fill:none;}
	.st9{fill:none;stroke:#FFFFFF;stroke-width:0.6719;stroke-miterlimit:10;}
	.st10{fill:#FFFFFF;}
	.st11{fill:#070606;}
	.st12{display:inline;fill:#FF0000;}
	.st13{display:inline;clip-path:url(#SVGID_4_);}
	.st14{fill:#FF0000;}
	.st15{stroke:#FFFFFF;stroke-miterlimit:10;}
	.st16{fill:none;stroke:#000000;stroke-width:0.192;stroke-miterlimit:10;}
	.st17{fill:none;stroke:#000000;stroke-width:0.192;stroke-miterlimit:10;stroke-dasharray:0.3823,0.3823;}
	.st18{fill:none;stroke:#000000;stroke-width:0.192;stroke-miterlimit:10;stroke-dasharray:0.3712,0.3712;}
	.st19{display:inline;clip-path:url(#SVGID_7_);}
	.st20{display:inline;clip-path:url(#SVGID_8_);}
	.st21{fill:none;stroke:#000000;stroke-width:0.384;stroke-miterlimit:10;}
	.st22{fill:none;stroke:#000000;stroke-miterlimit:10;}
	.st23{fill:none;stroke:#000000;stroke-width:0.6719;stroke-miterlimit:10;}
</style><g id="Layer_2" transform="translate(0,-110)" display="none" class="st1"><g id="g7992" display="inline" fill="#070606" class="st2"><path id="path7994" class="st11" d="m-198.5 19.9v.3c3 .8 5.8 2 8.3 3.6l4.4.1c1.1.9 2.1 1.9 3 2.9l-3.7-.1c.2.1.3.3.4.4.9.9 1.7 1.8 2.4 2.7l3.2.1c.6.9 1.1 1.9 1.5 2.9l-3-.1c.6 1.2 1 2.4 1.3 3.6l2.8.1c.2.9.3 1.9.4 2.8l-2.7-.1c.1.5.1 1.1.1 1.6 0 .7 0 1.3-.1 2l2.7.1c-.1.9-.2 1.9-.5 2.8l-2.8-.1c-.3 1.3-.8 2.5-1.5 3.7l3 .1c-.4.9-1 1.9-1.5 2.8l-3.8.4-.8 4.8c-.3.3-.6.5-.9.8-.6.5-1.2 1-1.9 1.4v-3.3c-1.1.9-2.3 1.7-3.5 2.4v3c-.9.5-1.8.9-2.8 1.3v-2.9l-3.6.4v2.5h-2.8v-2.5h-3.5v2.5h-2.8v-2.5h-3.6v2.5h-2.8v-2.5h-3.5v2.5h-2.8v-2.5h-7.3c.6.7.9 1.5.9 2.4v.1c0 .7-.2 1.4-.7 1.9-.2.2-.4.5-.7.7-.9.8-1.9 1.2-3.2 1.2-.5 0-1.1-.1-1.5-.2-.6-.2-1.2-.5-1.7-.9-.2-.2-.5-.5-.6-.7-.4-.6-.7-1.3-.7-2.1 0-1.1.4-2 1.3-2.8.5-.4 1.1-.7 1.7-.9.2-.1.4-.1.6-.2v-2.6h-5.7v4.2l-15.9 11.3v3.7h23.1v7.6h-22.7v4.4h106.8v-66.9h-29.4l-22.9-.7zm-50 51.8c.2.3.4.6.4.9 0 .4-.1.7-.4.9-.2.3-.5.4-.9.4-.3 0-.6-.1-.9-.4-.2-.3-.4-.6-.4-.9 0-.4.1-.7.4-.9.2-.3.5-.4.9-.4s.7.2.9.4z"/><path id="path7996" class="st11" d="m-232.2 61.4c-.2.2-.3.5-.3.9 0 .3.1.6.3.9l.2.2c.3.3.6.4 1.1.4.4 0 .8-.1 1.1-.4s.4-.6.4-1.1c0-.4-.1-.8-.4-1.1s-.6-.4-1.1-.4c-.4 0-.8.1-1.1.4-.1.1-.1.2-.2.2z"/><polygon id="polygon7998" points="-246.2 81.9 -239.7 81.9 -242.9 79.4" class="st11"/><polygon id="polygon8000" points="-246.7 79 -243.2 76.4 -250.1 76.4" class="st11"/><polygon id="polygon8002" points="-241.7 76.4 -238.4 79 -235 76.4" class="st11"/><polygon id="polygon8004" points="-231.3 81.9 -234.6 79.4 -238 81.9" class="st11"/></g></g><path id="path9880" d="m18.626 36.894c-5.0172-.42278-9.5202-3.2178-12.096-7.508-1.1316-1.8847-1.8178-3.8682-2.1338-6.1672-.11757-.85552-.11757-2.9202 0-3.7758.53553-3.897 2.3232-7.3048 5.12-9.76 1.654-1.452 3.3708-2.4407 5.4487-3.1379.38671-.12976.71304-.24586.72519-.25801.0122-.01214-.17874-.69240-.42418-1.5117-.48818-1.6296-.49569-1.6898-.24545-1.9699.27692-.30992.23156-.32355 4.2675 1.282 1.9823.78855 3.6593 1.4734 3.7268 1.5219.30269.21774.4252.61730.29459.96083-.0692.18209-4.4429 6.4463-4.6122 6.6059-.3229.30432-.74568.20488-.94844-.22308-.0658-.13881-.32251-.93955-.57054-1.7794l-.45096-1.527-.35003.09852c-.60723.17092-1.4014.48695-2.0646.82162-3.5086 1.7705-5.8806 5.0906-6.4817 9.0725-.10428.69071-.11963 2.4086-.0274 3.0647.27654 1.9672.89445 3.6457 1.9114 5.1923.47390.7207 1.0056 1.3572 1.6846 2.017 1.819 1.7672 4.0766 2.878 6.6381 3.2663.8051.12202 2.3088.14632 3.0648.0495 2.98-.38155 5.6908-1.7868 7.5884-3.9336 1.5834-1.7914 2.5544-3.8582 2.942-6.2618.12281-.76165.12081-2.7699-.004-3.5084-.37489-2.2272-1.1615-4.019-2.5321-5.7678-.37924-.48391-.4295-.58865-.36415-.75893.0165-.043.58006-.50965 1.2524-1.0371 1.3497-1.0588 1.396-1.0818 1.6656-.82498.25044.23852 1.025 1.2831 1.4252 1.922 4.3333 6.9182 2.6182 15.984-3.941 20.831-2.997 2.2146-6.8416 3.3139-10.509 3.0048zm-5.581-9.3609c-.21604-.0648-.46551-.27979-.5857-.50463-.10656-.19936-.10987-.24848-.10987-1.6276v-1.422l.12259-.21849c.32479-.57885 1.0643-.71157 1.5565-.27936.25322.22233.35351.47803.35479.90463l.0010.35775-.33099-.0145-.331-.0145-.0149-.31839c-.0114-.2432-.0395-.34453-.11888-.42906-.1933-.20576-.52966-.0966-.60301.19562-.0156.062-.0216.65773-.0135 1.3239.0143 1.1718.0183 1.2148.12237 1.3188.13215.13204.36946.14059.50471.0182.0829-.0751.0987-.15078.0987-.47401v-.38469h.34326.34325l-.0010.40455c-.00077.28863-.0271.46074-.0919.60068-.22138.47815-.74355.71404-1.2465.56308zm1.8788-2.1322v-2.133h.31874.31873v2.133 2.1331h-.31873-.31874zm1.8143.31873v-1.8143h-.34325-.34325v-.31873-.31873h1.0052 1.0052v.31873.31873h-.34325-.34326v1.8143 1.8143h-.31873-.31874zm1.8634-.31873v-2.133h.31873.31874v2.133 2.1331h-.31874-.31873zm1.1769 1.7767c0-.34012.0257-.42051.56392-1.7651.31015-.77479.56392-1.4309.56392-1.458 0-.0301-.21894-.0493-.56392-.0493h-.56392v-.31873-.31873h.93169.93169v.31838c0 .29237-.0481.43865-.58844 1.7902-.32363.80947-.58843 1.4826-.58843 1.4959s.2648.0242.58843.0242h.58844v.31873.31873h-.93169-.93169zm2.4028-1.7767v-2.133h.90717.90716v.31873.31873h-.58843-.58843v.58843.58843h.4168.41681v.31873.31873h-.41681-.4168v.58843.58843h.58843.58843v.31873.31874h-.90716-.90717zm2.2557 0v-2.133h.36021.36021l.41211 1.3853.41211 1.3853.013-1.3853.013-1.3853h.31797.31797v2.133 2.1331h-.34078-.34079l-.43882-1.3362-.43883-1.3362-.005 1.3362-.005 1.3362h-.31874-.31873v-2.1331zm-13.869-2.6742c-.46898-.23687-0.737-.67383-.86072-1.4032-.0311-.18369.0112-.2011.53261-.21876l.34252-.0116.0352.20622c.0723.4236.34676.74294.63807.74246.27976-.00044.57897-.34667.57834-.6692-.00074-.37741-.0851-.50226-.90583-1.34-.86756-.88556-1.0134-1.1004-1.1054-1.6289-.0637-.36593-.003-.82263.14996-1.1218.13133-.25742.49538-.55982.76998-.63959.53863-.15647 1.1689-.0264 1.525.31473.21687.20776.40507.58521.41592.83422l.009.20097-.42222.0785-.42222.0785-.0597-.23281c-.19459-.75926-1.0341-.62826-1.0323.16108.00092.405.18734.68782.93114 1.4126.61.59438.70105.70519.86792 1.0563.17333.36471.18638.4233.1857.8336-.00082.49875-.0883.75381-.36758 1.0719-.26153.29786-.49261.39045-1.0292.41239-.44473.0182-.4799.0119-.77593-.13757zm2.9826-2.9894v-3.0892h.65674c.48066 0 .6628.0164.67932.0613.0124.0337.20722 1.0144.43289 2.1794.22566 1.165.41804 2.1104.4275 2.1009.01-.009.19959-.98468.42252-2.1672l.40533-2.15.64544-.0137.64544-.0137v3.0907 3.0907h-.46584-.46584l-.005-1.9001-.005-1.9001-.0972.44132c-.0534.24273-.23325 1.0923-.39954 1.8879l-.30236 1.4466-.37449.0142-.3745.0142-.12296-.5291c-.0676-.29101-.26321-1.1341-.43461-1.8734l-.31164-1.3443-.0128 1.8715-.0128 1.8715h-.46526-.46526v-3.0892zm5.0999 3.0525c.00005-.0202.23176-1.4007.51488-3.0677.28313-1.667.51478-3.0413.51478-3.0539s.29156-.0168.6479-.009l.6479.0137.50141 2.9912c.27578 1.6452.50278 3.0298.50445 3.077.003.0761-.0514.0858-.47884.0858h-.48187l-.0601-.40455c-.033-.2225-.0833-.54246-.11159-.71102l-.0515-.30647h-.4803-.48029l-.0515.30647c-.0283.16856-.0786.48852-.11159.71102l-.0601.40455h-.48188c-.26503 0-.48183-.0166-.48178-.0368zm1.9969-2.4518c-.0142-.0742-.0878-.58143-.16362-1.1272-.0758-.54582-.152-.97611-.16927-.9562-.0173.0199-.0909.47753-.16352 1.0169-.0727.53939-.14255 1.0304-.1553 1.091-.0223.10629-.0103.11033.32714.11033h.35031l-.0258-.13484zm2.122-.60069v-3.0892h.89827c1.0471 0 1.3012.0526 1.6134.33376.342.30804.39995.50241.42161 1.4142.022.92757-.0338 1.2016-.31064 1.5251l-.17609.20573.32373 1.264c.17805.69522.33519 1.3026.34921 1.3498.0231.0778-.0217.0858-.48279.0858h-.50827l-.28398-1.1791-.28397-1.1791-.30211.0145-.30211.0145-.0131 1.1646-.0132 1.1646h-.46496-.46496v-3.0892zm1.8168-.27043c.18203-.16229.24277-.37974.24248-.86808-.00051-.85349-.0972-.99033-.70179-.99286l-.40125-.002-.0134.93016c-.007.5116-.002.96084.0128.99831.0426.11095.72107.0591.86117-.0658zm2.7926.73627v-2.6234h-.49036-.49036v-.46584-.46584h1.4466 1.4466v.46584.46584h-.49036-.49036v2.6234 2.6234h-.46585-.46584zm-3.777-11.302c-15.735 20.733-7.8677 10.367 0 0z"/></svg>
